<svg version="1.2" xmlns="http://www.w3.org/2000/svg" viewBox="0 0 1131 1539" width="1131" height="1539">
	<title>footer_logo (1)-svg</title>
	<style>
		.s0 { fill: #006098 } 
	</style>
	<g id="Layer">
		<g id="Layer">
			<path id="Layer" class="s0" d="m831.4 719.5q31.8 25.7 62 53.1 30.3 27.4 59 56.4 28.6 29 55.7 59.6-10.7 31.5-22.9 62.5-12.1 31-25.7 61.3-13.6 30.4-28.5 60.2-15 29.7-31.3 58.7-8.7-30-19.5-59.3-10.7-29.3-23.5-57.8-12.8-28.5-27.5-56.1-14.7-27.5-31.2-54c1.6 10.3 82.7 589.9 85 606.2l-141.1 28.4h-338.3l-141-28.4 85-606.4q-48.9 48.4-101.7 91.6-31.8-10.6-63.2-22.5-31.3-12-62.1-25.4-30.8-13.4-60.9-28.2-30.2-14.7-59.6-30.9c35.3-10.2 70-22.6 103.9-37.1 33.8-14.4 66.8-30.9 98.7-49.2 31.9-18.4 62.6-38.7 92.1-60.8 29.4-22.1 57.6-45.9 84.2-71.4l-45.6-9.4 125.8-130.9c-31.9-19.4-63.1-39.9-93.5-61.6-30.4-21.8-60-44.6-88.6-68.6-28.7-24-56.4-49-83.2-75.1-26.7-26.1-52.5-53.2-77.1-81.2q10.7-31.6 22.8-62.5 12.2-31 25.7-61.4 13.6-30.4 28.6-60.1 14.9-29.7 31.2-58.7c13.4 44.3 30.2 87.6 50.2 129.4 20 41.7 43.2 81.9 69.4 120.1 26.2 38.2 55.3 74.4 87 108.1 31.8 33.8 66 65 102.6 93.5l38.5-40.1 38.4 40.1c18.9-29.4 38.9-58.1 59.8-86 20.9-27.9 42.8-55.1 65.7-81.5 22.9-26.4 46.7-51.9 71.4-76.6 24.7-24.6 50.3-48.4 76.7-71.3q31.9 10.6 63.2 22.6 31.4 11.9 62.2 25.3 30.7 13.4 60.9 28.2 30.1 14.8 59.6 30.9c-43 12.3-85 27.8-125.7 46.3-40.7 18.5-80 39.9-117.6 64.1-37.6 24.3-73.4 51.2-107 80.7-33.7 29.4-65.1 61.3-94.1 95.4l1.5 1.5 124.3 129.3-45.5 9.5q33.1 23.9 64.8 49.5z"/>
		</g>
	</g>
</svg>